<svg xmlns="http://www.w3.org/2000/svg" xmlns:xlink="http://www.w3.org/1999/xlink" width="32" height="20" viewBox="0 0 32 20"><defs><path id="tl4la" d="M164.395 253.004a.684.684 0 0 0-.431.22l-8.724 9.162a.894.894 0 0 0-.24.618c0 .236.088.46.24.618l8.724 9.16c.143.15.332.228.525.217a.69.69 0 0 0 .506-.273.912.912 0 0 0 .187-.602.898.898 0 0 0-.241-.578l-7.339-7.703h28.66c.383.007.738-.392.738-.833 0-.44-.355-.84-.738-.833h-28.66l7.339-7.716a.916.916 0 0 0 .19-.956c-.124-.332-.422-.535-.736-.501z"/></defs><g><g transform="translate(-155 -253)"><use xlink:href="#tl4la"/></g></g></svg>