<svg xmlns="http://www.w3.org/2000/svg" xmlns:xlink="http://www.w3.org/1999/xlink" width="197" height="19" viewBox="0 0 197 19"><defs><path id="4svkb" d="M168.487 22.89c-.226.369-.5.637-.828.797a2.108 2.108 0 0 1-.97.252c-.322 0-.644-.083-.974-.252-.327-.16-.602-.428-.828-.797L154 5.25h4.202l8.486 14.08 8.492-14.08h4.197z"/><path id="4svka" d="M154 23.934h197.002V5H154z"/><path id="4svkd" d="M188.34 23.67h3.482V5.25h-3.482z"/><path id="4svke" d="M215.277 22.89c-.226.369-.5.637-.828.797a2.106 2.106 0 0 1-.968.252c-.324 0-.646-.083-.973-.252-.33-.16-.605-.428-.828-.797L200.79 5.25h4.196l8.495 14.08 8.49-14.08h4.193z"/><path id="4svkf" d="M233.32 23.67V11.504c0-2.008.558-3.554 1.68-4.631 1.12-1.083 2.838-1.623 5.16-1.623h8.172c2.321 0 4.043.54 5.157 1.623 1.119 1.077 1.683 2.623 1.683 4.631V23.67h-3.48v-5.88H236.8v5.88zm3.479-9.251h14.894v-2.915c0-.445-.052-.834-.154-1.16a1.773 1.773 0 0 0-.556-.82c-.261-.223-.607-.391-1.045-.497-.429-.111-.97-.166-1.628-.166h-8.131c-.655 0-1.197.055-1.626.166-.437.106-.783.274-1.047.497a1.762 1.762 0 0 0-.55.82 3.823 3.823 0 0 0-.157 1.16z"/><path id="4svkg" d="M265.48 23.666V6.84c0-.58.162-1.037.495-1.354A1.546 1.546 0 0 1 267.108 5c.198 0 .39.037.602.1.21.066.402.174.578.317l15.562 13.037V5.246h3.473v16.817c0 .591-.154 1.034-.486 1.363-.33.317-.71.485-1.139.485-.195 0-.393-.034-.602-.1a1.678 1.678 0 0 1-.57-.322l-15.565-13.032v13.209z"/><path id="4svkh" d="M303.44 23.67c-1.087 0-2-.111-2.745-.329-.743-.217-1.342-.537-1.799-.96a3.76 3.76 0 0 1-.995-1.568c-.21-.626-.311-1.34-.311-2.154v-8.403c0-.812.102-1.526.31-2.155a3.706 3.706 0 0 1 .996-1.568c.457-.42 1.056-.743 1.799-.954.745-.223 1.658-.329 2.744-.329h15.953v3.609h-15.975c-.784 0-1.353.134-1.713.391-.36.257-.542.643-.542 1.16v8.097c0 .514.182.9.542 1.157.36.26.93.389 1.713.389h16.022v3.617z"/><path id="4svki" d="M335.005 23.663c-1.09 0-2.002-.112-2.745-.332-.745-.217-1.342-.534-1.798-.96a3.76 3.76 0 0 1-1.001-1.565c-.21-.626-.311-1.34-.311-2.155v-8.405c0-.809.102-1.529.31-2.155a3.725 3.725 0 0 1 1.002-1.565c.456-.426 1.053-.743 1.798-.955.743-.225 1.656-.331 2.745-.331h10.147c1.067 0 1.98.106 2.728.331.756.212 1.359.529 1.815.955.457.423.784.943.993 1.565.203.626.31 1.346.31 2.155v8.405c0 .815-.107 1.529-.31 2.155a3.718 3.718 0 0 1-.993 1.565c-.456.426-1.059.743-1.815.96-.748.22-1.66.332-2.728.332zm-2.283-5.156c0 .515.182.898.542 1.155.36.263.935.392 1.713.392h10.2c.778 0 1.35-.129 1.713-.392.36-.257.54-.64.54-1.155v-8.101c0-.52-.18-.904-.54-1.161-.363-.257-.935-.392-1.713-.392h-10.2c-.778 0-1.353.135-1.713.392-.36.257-.542.64-.542 1.16z"/><clipPath id="4svkc"><use xlink:href="#4svka"/></clipPath></defs><g><g transform="translate(-154 -5)"><g><use fill="#1d1d1b" xlink:href="#4svkb"/></g><g/><g clip-path="url(#4svkc)"><use fill="#1d1d1b" xlink:href="#4svkd"/></g><g clip-path="url(#4svkc)"><use fill="#1d1d1b" xlink:href="#4svke"/></g><g clip-path="url(#4svkc)"><use fill="#1d1d1b" xlink:href="#4svkf"/></g><g clip-path="url(#4svkc)"><use fill="#1d1d1b" xlink:href="#4svkg"/></g><g clip-path="url(#4svkc)"><use fill="#1d1d1b" xlink:href="#4svkh"/></g><g clip-path="url(#4svkc)"><use fill="#1d1d1b" xlink:href="#4svki"/></g></g></g></svg>