<svg xmlns="http://www.w3.org/2000/svg" xmlns:xlink="http://www.w3.org/1999/xlink" width="21" height="12" viewBox="0 0 21 12"><defs><path id="eifja" d="M934.968 1843.693a.326.326 0 0 0-.44-.014.308.308 0 0 0-.015.426l4.461 4.594H921.11c-.17 0-.31.135-.31.3 0 .166.14.3.31.3h17.864l-4.46 4.594a.306.306 0 0 0 .014.427c.118.108.31.11.44-.014l4.955-5.1a.315.315 0 0 0 0-.413z"/></defs><g><g transform="translate(-920 -1843)"><use fill="#fff" xlink:href="#eifja"/><use fill="#fff" fill-opacity="0" stroke="#fff" stroke-miterlimit="50" stroke-width=".72" xlink:href="#eifja"/></g></g></svg>