<svg xmlns="http://www.w3.org/2000/svg" xmlns:xlink="http://www.w3.org/1999/xlink" width="32" height="25" viewBox="0 0 32 25"><defs><path id="ckdaa" d="M221.557 461.92h-25.385c-1.745 0-3.172 1.397-3.172 3.105v18.625c0 1.708 1.427 3.103 3.172 3.103h25.385c1.745 0 3.173-1.395 3.173-3.103v-18.625c0-1.708-1.428-3.105-3.173-3.105m-1.045 7.204l-11.23 5.856a1.171 1.171 0 0 1-1.073.003l-10.994-5.625a1.114 1.114 0 0 1-.487-1.52c.294-.549.99-.76 1.552-.474l10.457 5.349 10.695-5.577a1.162 1.162 0 0 1 1.555.465c.3.548.087 1.23-.475 1.523"/></defs><g><g opacity=".3" transform="translate(-193 -462)"><use fill="#9c9c9c" xlink:href="#ckdaa"/></g></g></svg>