<?xml version="1.0" encoding="utf-8"?>
<!-- Generator: Adobe Illustrator 16.0.0, SVG Export Plug-In . SVG Version: 6.00 Build 0)  -->
<!DOCTYPE svg PUBLIC "-//W3C//DTD SVG 1.1//EN" "http://www.w3.org/Graphics/SVG/1.1/DTD/svg11.dtd">
<svg version="1.1" id="Capa_1" xmlns="http://www.w3.org/2000/svg" xmlns:xlink="http://www.w3.org/1999/xlink" x="0px" y="0px"
	 width="19px" height="19px" viewBox="710.5 440.5 19 19" enable-background="new 710.5 440.5 19 19" xml:space="preserve">
<g>
	<path fill="#FFFFFF" d="M720,440.5c-5.247,0-9.5,4.253-9.5,9.5c0,5.247,4.253,9.5,9.5,9.5s9.5-4.253,9.5-9.5
		C729.5,444.753,725.247,440.5,720,440.5z M723.863,448.282c0.005,0.081,0.006,0.161,0.006,0.243c0,2.472-1.882,5.324-5.324,5.324
		c-1.056,0-2.04-0.31-2.867-0.841c0.146,0.018,0.294,0.025,0.446,0.025c0.877,0,1.684-0.298,2.324-0.801
		c-0.819-0.015-1.51-0.556-1.749-1.299c0.115,0.021,0.231,0.034,0.352,0.034c0.17,0,0.336-0.023,0.493-0.066
		c-0.855-0.172-1.501-0.928-1.501-1.834c0-0.008,0-0.016,0-0.024c0.252,0.141,0.541,0.225,0.847,0.234
		c-0.502-0.336-0.833-0.908-0.833-1.558c0-0.343,0.092-0.664,0.253-0.94c0.922,1.132,2.301,1.877,3.856,1.955
		c-0.032-0.137-0.048-0.28-0.048-0.427c0-1.033,0.838-1.871,1.871-1.871c0.538,0,1.024,0.227,1.365,0.591
		c0.427-0.084,0.827-0.239,1.188-0.454c-0.14,0.437-0.436,0.804-0.822,1.035c0.379-0.045,0.739-0.146,1.074-0.294
		C724.547,447.689,724.229,448.019,723.863,448.282z"/>
</g>
</svg>
