<?xml version="1.0" encoding="utf-8"?>
<!-- Generator: Adobe Illustrator 16.0.0, SVG Export Plug-In . SVG Version: 6.00 Build 0)  -->
<!DOCTYPE svg PUBLIC "-//W3C//DTD SVG 1.1//EN" "http://www.w3.org/Graphics/SVG/1.1/DTD/svg11.dtd">
<svg version="1.1" id="Capa_1" xmlns="http://www.w3.org/2000/svg" xmlns:xlink="http://www.w3.org/1999/xlink" x="0px" y="0px"
	 width="22px" height="22px" viewBox="709 439 22 22" enable-background="new 709 439 22 22" xml:space="preserve">
<g>
	<path fill="#FFFFFF" d="M720,439c-6.076,0-11,4.925-11,11s4.924,11,11,11c6.075,0,11-4.925,11-11S726.075,439,720,439z
		 M724.474,448.011c0.005,0.093,0.006,0.187,0.006,0.281c0,2.862-2.179,6.164-6.164,6.164c-1.223,0-2.362-0.358-3.32-0.974
		c0.169,0.021,0.341,0.03,0.517,0.03c1.015,0,1.949-0.346,2.691-0.928c-0.948-0.017-1.749-0.644-2.024-1.504
		c0.133,0.024,0.268,0.039,0.408,0.039c0.197,0,0.389-0.026,0.571-0.076c-0.991-0.199-1.738-1.075-1.738-2.125
		c0-0.009,0-0.018,0-0.027c0.292,0.163,0.626,0.26,0.981,0.271c-0.582-0.389-0.964-1.051-0.964-1.803
		c0-0.397,0.106-0.769,0.293-1.089c1.068,1.311,2.665,2.173,4.466,2.264c-0.037-0.159-0.056-0.324-0.056-0.494
		c0-1.196,0.97-2.166,2.167-2.166c0.623,0,1.187,0.263,1.581,0.684c0.494-0.097,0.958-0.277,1.376-0.526
		c-0.162,0.506-0.505,0.931-0.952,1.199c0.438-0.053,0.855-0.169,1.244-0.341C725.265,447.324,724.897,447.706,724.474,448.011z"/>
</g>
</svg>
