<svg xmlns="http://www.w3.org/2000/svg" xmlns:xlink="http://www.w3.org/1999/xlink" width="26" height="26" viewBox="0 0 26 26"><defs><path id="9a0ua" d="M224.658 643.914c0 7.027-5.717 12.744-12.744 12.744s-12.744-5.717-12.744-12.744 5.717-12.744 12.744-12.744c7.028 0 12.744 5.717 12.744 12.744zm-5.504-4.45c0-1.544-1.256-2.8-2.8-2.8h-8.89a2.803 2.803 0 0 0-2.8 2.8v8.89c0 1.545 1.256 2.8 2.8 2.8h8.89c1.544 0 2.8-1.255 2.8-2.8zm-9.795 4.455c0-.558.182-1.073.485-1.493a2.56 2.56 0 0 1 2.076-1.067c.854 0 1.61.423 2.076 1.068.301.42.484.935.484 1.492 0 1.412-1.15 2.56-2.561 2.56a2.562 2.562 0 0 1-2.56-2.56zm5.67-3.122l-.008-2.456 2.137-.007h.32v2.455zm.557 1.625h2.165v5.94a1.39 1.39 0 0 1-1.39 1.39h-8.896a1.39 1.39 0 0 1-1.39-1.39v-5.94h2.165c-.187.46-.292.963-.292 1.489a3.972 3.972 0 0 0 3.966 3.968 3.972 3.972 0 0 0 3.966-3.968c0-.526-.106-1.03-.294-1.489z"/></defs><g><g transform="translate(-199 -631)"><use xlink:href="#9a0ua"/></g></g></svg>