<svg xmlns="http://www.w3.org/2000/svg" xmlns:xlink="http://www.w3.org/1999/xlink" width="22" height="22" viewBox="0 0 22 22"><defs><path id="c0r8a" d="M1055.073 18.494l6.084-6.674s2.03.521 2.578-.028c.911-.912-.632-3.132-3.029-5.534-1.974-1.977-4.632-3.929-5.523-3.035-.548.55-.029 2.584-.029 2.584l-6.661 6.094s-4.132-1.97-5.297-.804a1.24 1.24 0 0 0 0 1.751l4.602 4.612-5.747 7.075.005.005a.294.294 0 0 0 .026.377c.103.102.261.109.377.026l.004.004 7.062-5.757 4.6 4.612a1.238 1.238 0 0 0 1.75 0c1.165-1.168-.802-5.308-.802-5.308z"/></defs><g><g transform="translate(-1042 -3)"><use xlink:href="#c0r8a"/></g></g></svg>